<?xml version="1.0" encoding="UTF-8"?>
<svg width="32px" height="32px" viewBox="0 0 32 32" version="1.1" xmlns="http://www.w3.org/2000/svg" xmlns:xlink="http://www.w3.org/1999/xlink">
    <!-- Generator: Sketch 55.2 (78181) - https://sketchapp.com -->
    <title>adblock-plus-power</title>
    <desc>Created with Sketch.</desc>
    <g id="adblock-plus-power" stroke="none" stroke-width="1" fill="none" fill-rule="evenodd">
        <rect id="Rectangle" fill="#FFFFFF" opacity="0" x="0" y="0" width="32" height="32"></rect>
        <circle id="Oval" fill="#088ED3" cx="16" cy="16" r="16"></circle>
        <path d="M11.5448448,9.1698287 C9.34699336,10.645814 8,13.1171616 8,15.8153678 C8,20.2336458 11.581722,23.8153678 16,23.8153678 C20.418278,23.8153678 24,20.2336458 24,15.8153678 C24,13.1399875 22.6758038,10.6868469 20.5084805,9.20595153 C20.0524789,8.89437334 19.4302325,9.01145165 19.1186543,9.46745327 C18.8070761,9.92345489 18.9241544,10.5457013 19.380156,10.8572795 C21.0076616,11.9693265 22,13.8076836 22,15.8153678 C22,19.1290763 19.3137085,21.8153678 16,21.8153678 C12.6862915,21.8153678 10,19.1290763 10,15.8153678 C10,13.7905878 11.0094645,11.9385092 12.6598616,10.8301713 C13.1183526,10.5222679 13.2404279,9.90098254 12.9325245,9.4424916 C12.6246211,8.98400065 12.0033358,8.86192532 11.5448448,9.1698287 Z" id="Path" fill="#FFFFFF" fill-rule="nonzero"></path>
        <path d="M15,8.5 L15,16.5 C15,17.0522847 15.4477153,17.5 16,17.5 C16.5522847,17.5 17,17.0522847 17,16.5 L17,8.5 C17,7.94771525 16.5522847,7.5 16,7.5 C15.4477153,7.5 15,7.94771525 15,8.5 Z" id="Line" fill="#FFFFFF" fill-rule="nonzero"></path>
    </g>
</svg>