<?xml version="1.0" encoding="utf-8"?>
<!-- Generator: Adobe Illustrator 23.0.1, SVG Export Plug-In . SVG Version: 6.00 Build 0)  -->
<svg version="1.1"
	 id="svg2" xmlns:cc="http://creativecommons.org/ns#" xmlns:dc="http://purl.org/dc/elements/1.1/" xmlns:inkscape="http://www.inkscape.org/namespaces/inkscape" xmlns:osb="http://www.openswatchbook.org/uri/2009/osb" xmlns:rdf="http://www.w3.org/1999/02/22-rdf-syntax-ns#" xmlns:sodipodi="http://sodipodi.sourceforge.net/DTD/sodipodi-0.dtd" xmlns:svg="http://www.w3.org/2000/svg"
	 xmlns="http://www.w3.org/2000/svg" xmlns:xlink="http://www.w3.org/1999/xlink" x="0px" y="0px" viewBox="0 0 136 136"
	 style="enable-background:new 0 0 136 136;" xml:space="preserve">
<style type="text/css">
	.st0{fill:#FFFFFF;}
	.st1{fill:#FFFFFF;stroke:#DADBDB;stroke-width:3;}
	.st2{fill:#E00000;stroke:#CB0000;stroke-width:3.0038;}
</style>
<symbol  id="ABP" viewBox="-309.63 -310.25 619.25 620.5">
	<g id="layer1_1_" transform="translate(0,-431.86229)" inkscape:groupmode="layer" inkscape:label="Layer 1">
		<rect id="rect6016_1_" x="-265.18" y="319.6" class="st0" width="525.28" height="226.27"/>
		<path id="path4287_1_" inkscape:connector-curvature="0" class="st1" d="M-217.82,213.43l-90.31,90.32v128.12v128.12l90.32,90.31
			l90.32,90.31H0.01h127.5l90.31-90.32l90.31-90.32V431.86V303.73l-90.32-90.31l-90.32-90.31H-0.01h-127.5L-217.82,213.43
			L-217.82,213.43z M198.43,234.05l82.19,82.18v115.63v115.63l-82.19,82.18l-82.19,82.18H0.6h-115.64l-82.17-82.19l-82.17-82.19
			l0-115.62l0-115.62l82.18-82.19l82.18-82.19H0.62h115.62L198.43,234.05L198.43,234.05z"/>
		<path id="path4220_1_" inkscape:connector-curvature="0" class="st2" d="M-197.69,233.47l-81.77,81.57v116.87v116.87l81.77,81.56
			l81.77,81.56H0.01h115.91l82.4-82.18l82.4-82.18V431.9V316.27l-82.4-82.18l-82.4-82.18H0h-115.92L-197.69,233.47L-197.69,233.47z
			 M33.73,327.66c31.22,6.72,48.92,26.18,51.1,56.19c1.48,20.29-4.54,37.72-16.17,46.89c-5.58,4.4-17.6,9.9-21.63,9.9
			c-3.29,0-3.16,2.23,0.17,3.06c10.03,2.51,21.36,14.96,25.48,28.01c3.08,9.73,3.4,28,0.66,37.2c-2.66,8.92-10.24,19.1-18.23,24.45
			c-14.39,9.64-31.54,12.17-82.99,12.24l-32.27,0.04l0-110.31l0-110.31l42.3,0.32C15.26,325.6,26.46,326.1,33.73,327.66
			L33.73,327.66z M-16.29,392.41v28.24H0.4c18.68,0,27.15-1.79,33.42-7.05c6.01-5.05,7.94-9.91,7.94-20.06
			c0.01-13.01-3.66-19.71-13.55-24.76c-7.03-3.59-8.16-3.77-25.93-4.18l-18.58-0.43V392.41z M-16.29,481.27v24.62l16.6-0.44
			c18.39-0.49,24.16-2.27,29.06-8.96c3.94-5.38,3.73-22.13-0.36-28.69c-4.98-8-10.81-10.12-29.32-10.67l-15.98-0.48L-16.29,481.27
			L-16.29,481.27z M-208.8,346.59c2.59,11.52,5.25,23.05,5.92,25.62l1.22,4.69h28.67h28.67l2.74-12.19
			c1.5-6.7,4.14-18.23,5.85-25.62l3.11-13.44h23.21c18.02,0,23.09,0.35,22.68,1.56c-0.29,0.86-13.72,50.08-29.83,109.37
			l-29.3,107.81h-26.4h-26.4l-3.42-12.81c-4.81-18.04-54.72-201.09-55.56-203.75c-0.64-2.03,0.95-2.19,21.72-2.19h22.41
			L-208.8,346.59L-208.8,346.59z M-192.49,419.09c1.79,5.94,8.92,37.52,13.75,60.94c3.24,15.72,5.73,25.25,6.19,23.75
			c0.43-1.38,3.05-13.19,5.82-26.25c2.77-13.06,6.95-32.05,9.28-42.19l4.25-18.44h-19.97C-191.62,416.9-193.1,417.07-192.49,419.09
			L-192.49,419.09z M157.91,362.53v36.87h17.43c21.16,0,33.8,2.22,46.23,8.11c17.52,8.3,31.24,26.22,35.42,46.27
			c2.25,10.79,1.95,33.3-0.57,43.12c-6.38,24.86-22.82,40.24-48.65,45.52c-7.68,1.57-18.28,1.98-51.69,1.98h-42.03V435.03V325.65
			h21.93h21.93L157.91,362.53L157.91,362.53z M157.91,471.9v32.5h16.69c19.82,0,27.7-1.86,33.86-8.01
			c5.57-5.55,7.55-13.11,6.84-26.04c-1.29-23.43-11.49-30.95-41.96-30.95h-15.44L157.91,471.9L157.91,471.9z"/>
	</g>
</symbol>
<sodipodi:namedview  bordercolor="#666666" borderopacity="1.0" id="base" inkscape:current-layer="layer1" inkscape:cx="119.46034" inkscape:cy="376.94507" inkscape:document-units="px" inkscape:pageopacity="0.0" inkscape:pageshadow="2" inkscape:window-height="719" inkscape:window-maximized="1" inkscape:window-width="1366" inkscape:window-x="0" inkscape:window-y="25" inkscape:zoom="0.49497475" pagecolor="#ffffff" showgrid="false" units="px">
	</sodipodi:namedview>
<use xlink:href="#ABP"  width="619.25" height="620.5" x="-309.63" y="-310.25" transform="matrix(0.2067 0 0 -0.2067 68.2326 67.7318)" style="overflow:visible;"/>
</svg>
