<?xml version="1.0" encoding="UTF-8"?>
<svg width="32px" height="32px" viewBox="0 0 32 32" version="1.1" xmlns="http://www.w3.org/2000/svg" xmlns:xlink="http://www.w3.org/1999/xlink">
    <!-- Generator: Sketch 55.2 (78181) - https://sketchapp.com -->
    <title>ublock-power</title>
    <desc>Created with Sketch.</desc>
    <g id="ublock-power" stroke="none" stroke-width="1" fill="none" fill-rule="evenodd">
        <rect id="Rectangle" fill="#FFFFFF" opacity="0" x="0" y="0" width="32" height="32"></rect>
        <path d="M15.9998974,17 C16.6770114,17 17.2631503,16.7601675 17.7575619,16.2791069 C18.2521102,15.7987108 18.5,15.2291999 18.5,14.5716374 L18.5,2.42869484 C18.5,1.77080011 18.2523838,1.20168793 17.7575619,0.721291866 C17.2632187,0.240364168 16.6770114,0 15.9998974,0 C15.322715,0 14.7369181,0.240629984 14.2421645,0.721291866 C13.747411,1.20168793 13.5,1.77106592 13.5,2.42869484 L13.5,14.5717039 C13.5,15.2292663 13.747411,15.7987108 14.2421645,16.2791733 C14.7369181,16.7601675 15.3229202,17 15.9998974,17 Z" id="Path" fill="#0047FF" fill-rule="nonzero"></path>
        <path d="M29.4284877,10.6839596 C28.3801059,8.62478487 26.9056673,6.89791935 25.0046929,5.50383346 C24.4578242,5.09457903 23.8393302,4.93464052 23.1492111,5.02408512 C22.4590236,5.11366413 21.9121548,5.43340675 21.5085364,5.98324579 C21.0918517,6.52038382 20.9326619,7.12472291 21.0300776,7.79626306 C21.1274248,8.46813921 21.4500459,9.0083685 21.9969147,9.41769013 C23.2724174,10.3641498 24.259367,11.5218896 24.955643,12.8905063 C25.6523295,14.2589886 26.0002622,15.7173187 26.0002622,17.2646902 C26.0002622,18.5953383 25.7366105,19.8645646 25.2093753,21.0735116 C24.6822086,22.282257 23.9691038,23.3277038 23.0705397,24.2103897 C22.1719757,25.0928067 21.1079964,25.7930417 19.8773023,26.3111619 C18.6468134,26.829282 17.3544819,27.0886781 16.0003078,27.0886781 C14.646339,27.0886781 13.3539392,26.829282 12.1234502,26.3111619 C10.8928245,25.7930417 9.82850321,25.0928067 8.92993914,24.2103897 C8.03178552,23.3277038 7.31881751,22.2823242 6.79137716,21.0735116 C6.26407363,19.8645646 6.00035345,18.5953383 6.00035345,17.2646902 C6.00035345,15.7173187 6.34869668,14.2591902 7.04524631,12.8905063 C7.74186435,11.522024 8.72819833,10.3643514 10.0041798,9.41769013 C10.5510486,9.00809969 10.8731908,8.46793761 10.971017,7.79626306 C11.0686379,7.12499172 10.9092429,6.52038382 10.4924897,5.98324579 C10.0888029,5.43340675 9.54542304,5.11359693 8.86166605,5.02408512 C8.17797748,4.93457332 7.55606306,5.09457903 6.99626482,5.50383346 C5.09501679,6.89791935 3.62064656,8.62478487 2.5722648,10.6839596 C1.52395145,12.7434032 1,14.93698 1,17.2647574 C1,19.2604271 1.3971879,21.1660474 2.19135846,22.9823576 C2.98580266,24.7986677 4.0533392,26.3652587 5.39472058,27.682937 C6.7356915,29.0002793 8.33080521,30.0494222 10.1799249,30.8289544 C12.0289077,31.6094947 13.9690126,32 16.0002394,32 C18.0315347,32 19.9715711,31.6094947 21.8206224,30.8289544 C23.6698105,30.0491534 25.2648558,29.0002121 26.6060319,27.682937 C27.9470028,26.3656619 29.0145394,24.7986677 29.8088468,22.9823576 C30.6031542,21.1660474 31,19.2599567 31,17.2647574 C31,14.9369128 30.4768011,12.743336 29.4284877,10.6839596 Z" id="Path" fill="#0047FF" fill-rule="nonzero"></path>
    </g>
</svg>