<?xml version="1.0" encoding="UTF-8"?>
<svg width="32px" height="32px" viewBox="0 0 32 32" version="1.1" xmlns="http://www.w3.org/2000/svg" xmlns:xlink="http://www.w3.org/1999/xlink">
    <!-- Generator: Sketch 55.2 (78181) - https://sketchapp.com -->
    <title>ublock-refresh</title>
    <desc>Created with Sketch.</desc>
    <g id="ublock-refresh" stroke="none" stroke-width="1" fill="none" fill-rule="evenodd">
        <rect id="Rectangle" fill="#FFFFFF" opacity="0" x="0" y="0" width="32" height="32"></rect>
        <path d="M31.5705877,1.72712528 C31.3071526,1.46383599 30.9948793,1.33175399 30.6340592,1.33175399 C30.273385,1.33175399 29.961549,1.46383599 29.6976036,1.72712528 L26.992328,4.41213667 C25.5078633,3.01069704 23.8080729,1.92481093 21.8936128,1.15498861 C19.9792984,0.385093394 18.0086378,0.000218678815 15.9829431,0.000218678815 C12.1674351,0.000218678815 8.83783144,1.1550615 5.99354897,3.4652574 C3.14919362,5.77516173 1.27628246,8.78899317 0.374451025,12.5074806 L0.374451025,12.6530478 C0.374451025,12.833385 0.440273349,12.9895945 0.572136674,13.1212392 C0.704,13.2531025 0.859990888,13.3189977 1.04032802,13.3189977 L5.18166743,13.3189977 C5.48701595,13.3189977 5.6949795,13.1592893 5.80606834,12.8403827 C6.38870159,11.4530843 6.75622779,10.6414943 6.90901139,10.4055399 C7.88009112,8.82390888 9.17036902,7.58210478 10.7798451,6.68027335 C12.389467,5.77851481 14.1236629,5.3274533 15.9826515,5.3274533 C18.7716082,5.3274533 21.1925285,6.27790433 23.2460683,8.17866059 L20.3736492,11.0504237 C20.1107244,11.3140774 19.9784966,11.6264237 19.9784966,11.9871708 C19.9784966,12.3478451 20.1106515,12.6600456 20.3736492,12.9236264 C20.6375945,13.1872802 20.9498679,13.3189977 21.310615,13.3189977 L30.6340592,13.3189977 C30.9948064,13.3189977 31.3070797,13.1872802 31.5705877,12.9236264 C31.8339499,12.6600456 31.9656674,12.347918 31.9656674,11.9871708 L31.9656674,2.66365376 C31.9656674,2.30290661 31.8347517,1.99085194 31.5705877,1.72712528 Z" id="Path" fill="#888888" fill-rule="nonzero"></path>
        <path d="M30.779262,18.6469613 L26.7835626,18.6469613 C26.478287,18.6469613 26.2701777,18.8063781 26.1594533,19.1255763 C25.5770387,20.5130205 25.2090752,21.324246 25.056656,21.5602005 C24.0852847,23.141467 22.7949339,24.3837084 21.1858952,25.285467 C19.5762005,26.1875171 17.8420046,26.6380683 15.9829431,26.6380683 C14.6372665,26.6380683 13.339918,26.3885558 12.0914077,25.8892392 C10.8427517,25.3893394 9.72574032,24.6816219 8.74081093,23.7658679 L11.5920182,20.9148793 C11.8555262,20.6515171 11.9873895,20.3389522 11.9873895,19.9784237 C11.9873895,19.6177494 11.8555262,19.3051845 11.5920182,19.0419681 C11.3283645,18.7780957 11.0163098,18.6460866 10.6555626,18.6460866 L1.33204556,18.6460866 C0.971079727,18.6460866 0.658879271,18.7780957 0.395298405,19.0419681 C0.13171754,19.3052574 0,19.6178223 0,19.9784966 L0,29.3020137 C0,29.6624692 0.13171754,29.9749613 0.395371298,30.2384692 C0.659170843,30.5016128 0.971371298,30.6341321 1.33211845,30.6341321 C1.69279271,30.6341321 2.00484738,30.5016856 2.26857403,30.2384692 L4.95314806,27.5536036 C6.43775854,28.9684556 8.12705239,30.0578405 10.0208838,30.8208838 C11.9147153,31.5842187 13.8744419,31.9653759 15.899918,31.9653759 C19.7016492,31.9653759 23.0174032,30.8103872 25.8476902,28.5004829 C28.6779772,26.1906515 30.5371116,23.1762369 31.4254579,19.4581139 C31.4393804,19.4304146 31.4459408,19.381795 31.4459408,19.3126925 C31.4459408,19.1320638 31.3798269,18.9765103 31.2480364,18.8442096 C31.1161002,18.7130752 30.9598907,18.6469613 30.779262,18.6469613 Z" id="Path" fill="#888888" fill-rule="nonzero"></path>
    </g>
</svg>